<svg width="145" height="33" viewBox="0 0 145 33" fill="none" xmlns="http://www.w3.org/2000/svg">
<path d="M1.60851 15.6212C2.1156 12.9843 4.44823 11.1588 7.69362 11.1588C11.4461 11.1588 14.3872 12.7814 14.3872 17.8524V27.2843H11.1418L10.7362 25.2559C9.62057 26.6758 8.09929 27.5886 5.86808 27.5886C3.12979 27.5886 1 25.8644 1 22.7205C1 19.5765 3.83972 17.5481 7.79503 17.5481H10.4319V16.8382C10.4319 15.0127 9.11347 14.5056 7.5922 14.5056C6.4766 14.5056 5.36099 14.9112 4.8539 16.3311L1.60851 15.6212ZM6.78085 24.2417C8.60638 24.2417 10.4319 23.0247 10.4319 20.9964V20.6921H7.89645C6.17234 20.5907 5.15816 21.3006 5.15816 22.7205C5.15816 23.4304 5.76667 24.2417 6.78085 24.2417Z" fill="#595959"/>
<path d="M78.0782 15.6212C78.5853 12.9843 80.918 11.1588 84.1633 11.1588C87.9158 11.1588 90.857 12.7814 90.857 17.8524V27.2843H87.6116L87.2059 25.2559C86.0903 26.6758 84.569 27.5886 82.3378 27.5886C79.5995 27.5886 77.4697 25.8644 77.4697 22.7205C77.4697 19.5765 80.3094 17.5481 84.2648 17.5481H86.9016V16.8382C86.9016 15.0127 85.5832 14.5056 84.0619 14.5056C82.9463 14.5056 81.8307 14.9112 81.3236 16.3311L78.0782 15.6212ZM83.2506 24.2417C85.0761 24.2417 86.9016 23.0247 86.9016 20.9964V20.6921H84.2648C82.5406 20.6921 81.5265 21.3006 81.5265 22.7205C81.6279 23.4304 82.2364 24.2417 83.2506 24.2417Z" fill="#595959"/>
<path d="M94.4062 27.3857V11.3616H98.3616V13.9985C99.4772 12.0715 101.303 11.1588 103.027 11.1588C103.737 11.1588 104.345 11.2602 104.954 11.463L104.244 15.1141C103.737 14.8098 103.23 14.607 102.621 14.607C100.289 14.607 98.3616 16.5339 98.3616 21.6049V27.2843L94.4062 27.3857Z" fill="#595959"/>
<path d="M113.372 11.1589C114.994 11.1589 116.516 11.9702 117.226 12.883V4.97229H121.181V27.3858H117.226V25.7631C116.718 26.5745 115.299 27.6901 113.372 27.6901C108.605 27.6901 106.171 24.3433 106.171 19.4752C106.171 14.6071 108.605 11.1589 113.372 11.1589ZM113.98 24.2418C116.008 24.2418 117.631 22.5177 117.631 19.3737C117.631 16.2298 116.008 14.5057 113.98 14.5057C111.952 14.5057 110.329 16.2298 110.329 19.3737C110.329 22.5177 111.952 24.2418 113.98 24.2418Z" fill="#595959"/>
<path d="M135.38 13.6942L133.047 15.824C132.337 14.8098 131.222 14.4042 130.41 14.4042C129.599 14.4042 128.889 14.9113 128.889 15.7226C128.889 16.4325 129.497 16.9396 130.41 17.2439C132.641 18.0552 136.191 18.7652 136.191 22.112C136.191 25.0531 133.96 27.3857 130.512 27.3857C127.165 27.3857 124.934 25.0531 124.224 23.1262L127.368 21.402C127.976 22.9233 128.99 24.0389 130.613 24.0389C131.83 24.0389 132.641 23.4304 132.641 22.3148C132.641 20.9964 130.613 20.6921 128.686 19.8808C126.962 19.1708 125.441 18.0552 125.441 15.6212C125.441 13.1871 127.469 10.9559 130.512 10.9559C132.54 11.0574 134.467 12.173 135.38 13.6942Z" fill="#595959"/>
<path d="M53.636 11.3616L50.7963 22.4162L48.058 11.3616H44.4069L41.7701 22.4162L39.5389 16.0268L39.2346 16.7367L38.0176 20.8949L40.0459 27.3857H43.4942L46.2325 17.041L48.9708 27.3857H52.5204L57.5914 11.3616H53.636Z" fill="#595959"/>
<path d="M72.6017 11.3616L69.762 22.4162L67.0237 11.3616H63.3726L60.7357 22.4162L58.5045 16.0268L58.2003 16.7367L56.8818 20.8949L59.0116 27.3857H62.4599L65.1982 17.041L67.9365 27.3857H71.3847L76.557 11.3616H72.6017Z" fill="#595959"/>
<path d="M38.6262 11.3616L33.5553 27.2843H30.1071L27.3688 17.041L24.6305 27.3857H21.1823L16.1113 11.463H20.0666L22.9064 22.4162L25.6447 11.463H29.2957L32.034 22.4162L34.8737 11.463L38.6262 11.3616Z" fill="#595959"/>
<path d="M141.363 22.2134C142.885 22.2134 144 23.329 144 24.8503C144 26.3715 142.885 27.4871 141.363 27.4871C139.842 27.4871 138.727 26.3715 138.727 24.8503C138.727 23.329 139.842 22.2134 141.363 22.2134Z" fill="#595959"/>
</svg>
