<svg width="109" height="33" viewBox="0 0 109 33" fill="none" xmlns="http://www.w3.org/2000/svg">
<mask id="mask0_843_1316" style="mask-type:luminance" maskUnits="userSpaceOnUse" x="0" y="0" width="109" height="33">
<path d="M109 0H0V33H109V0Z" fill="white"/>
</mask>
<g mask="url(#mask0_843_1316)">
<path d="M9.374 7C10.3051 7 11.1637 7.07314 11.9506 7.28832C12.7375 7.43248 13.3817 7.72081 13.9541 8.08156C14.5272 8.44161 14.9562 8.94653 15.2424 9.5956C15.5286 10.244 15.6721 11.0379 15.6721 11.9029C15.6721 12.912 15.4576 13.777 14.9562 14.4268C14.5272 15.0744 13.8114 15.6518 12.9527 16.0843C14.1693 16.445 15.0997 17.0934 15.6721 17.9583C16.2445 18.824 16.6025 19.9056 16.6025 21.1313C16.6025 22.1397 16.388 23.0054 16.0293 23.7269C15.6721 24.4477 15.099 25.0968 14.4555 25.53C13.8114 25.9632 13.0244 26.3239 12.1658 26.5398C11.3072 26.755 10.4478 26.8998 9.58919 26.8998H0V7H9.374ZM8.80157 15.0751C9.58848 15.0751 10.2326 14.8592 10.7333 14.4985C11.2347 14.1377 11.4485 13.4887 11.4485 12.6954C11.4485 12.2629 11.3775 11.8297 11.2347 11.5421C11.0913 11.2538 10.8768 11.0372 10.5906 10.8206C10.3051 10.6765 10.0182 10.533 9.66021 10.4606C9.30227 10.3881 8.94503 10.3881 8.51536 10.3881H4.36492V15.0744L8.80157 15.0751ZM9.01676 23.5834C9.44573 23.5834 9.8754 23.511 10.2333 23.4393C10.5906 23.3668 10.9485 23.2227 11.2354 23.0061C11.5209 22.7902 11.7361 22.5736 11.9506 22.2129C12.0941 21.8528 12.2368 21.4189 12.2368 20.9147C12.2368 19.9056 11.9506 19.1841 11.3782 18.6792C10.8051 18.246 10.0182 18.0308 9.08849 18.0308H4.36563V23.5827L9.01676 23.5834ZM22.8274 23.511C23.4005 24.0884 24.2585 24.376 25.404 24.376C26.1909 24.376 26.9061 24.1601 27.4793 23.7993C28.0517 23.3654 28.4096 22.9337 28.5524 22.5005H32.0587C31.4855 24.2311 30.6276 25.4575 29.482 26.2501C28.3372 26.9709 26.9771 27.4041 25.3316 27.4041C24.1867 27.4041 23.1847 27.1875 22.255 26.826C21.3239 26.466 20.6087 25.9617 19.9653 25.2409C19.3211 24.5926 18.8204 23.7993 18.5342 22.8612C18.1763 21.9231 18.0328 20.9147 18.0328 19.7607C18.0328 18.6799 18.1763 17.6707 18.5342 16.7319C18.8922 15.7945 19.3929 15.002 20.037 14.2812C20.6805 13.6328 21.4674 13.0555 22.3267 12.6954C23.2571 12.3347 24.1867 12.1181 25.3323 12.1181C26.5489 12.1181 27.622 12.334 28.5524 12.8389C29.4827 13.3438 30.1979 13.9204 30.7711 14.7854C31.3435 15.5786 31.7732 16.5153 32.0594 17.5252C32.2021 18.535 32.2731 19.5441 32.2021 20.6974H21.8253C21.8253 21.8535 22.255 22.9344 22.8274 23.511ZM27.3351 15.9408C26.8337 15.4359 26.0468 15.1476 25.1164 15.1476C24.473 15.1476 23.9716 15.291 23.5419 15.5076C23.1129 15.7242 22.8267 16.0118 22.5398 16.3008C22.2543 16.5899 22.1108 16.9499 22.0391 17.3107C21.9674 17.6714 21.8956 17.9583 21.8956 18.2481H28.3358C28.1937 17.1665 27.8358 16.4457 27.3351 15.9408ZM37.7822 7V14.4992H37.8539C38.3553 13.6335 38.9988 13.0569 39.7857 12.6961C40.5733 12.3354 41.2885 12.1188 42.0754 12.1188C43.1485 12.1188 44.0079 12.2636 44.652 12.5513C45.2955 12.8396 45.8686 13.2728 46.2266 13.777C46.5838 14.2819 46.87 14.931 47.0135 15.6518C47.1569 16.3726 47.2279 17.1665 47.2279 18.1032V26.9716H43.292V18.8247C43.292 17.599 43.0775 16.7333 42.7196 16.1574C42.3616 15.58 41.7175 15.2917 40.7878 15.2917C39.7147 15.2917 38.9271 15.6525 38.4981 16.2305C37.9967 16.8782 37.7822 17.9598 37.7822 19.4021V26.9723H33.847V7H37.7822ZM50.0908 14.6426C50.5205 13.9943 51.0211 13.5611 51.6653 13.1279C52.3088 12.7678 53.0246 12.4802 53.8123 12.3347C54.5907 12.1912 55.3811 12.1188 56.173 12.1188C56.8889 12.1188 57.604 12.1912 58.3924 12.2636C59.1082 12.3354 59.8234 12.5506 60.3959 12.8403C61.0393 13.1279 61.469 13.5611 61.8986 14.066C62.2559 14.5716 62.4711 15.2924 62.4711 16.1581V23.7283C62.4711 24.3767 62.5428 25.0265 62.6145 25.6031C62.6863 26.1805 62.8993 26.6847 63.1152 26.973H59.1082C58.9641 26.8281 58.8931 26.5405 58.822 26.3253C58.7503 26.108 58.7503 25.8204 58.7503 25.6038C58.1068 26.2522 57.3903 26.6854 56.5316 26.9737C55.673 27.262 54.8143 27.3337 53.9557 27.3337C53.2398 27.3337 52.6674 27.262 52.0232 27.0468C51.4508 26.902 50.9501 26.6129 50.4494 26.2529C50.0197 25.8921 49.6618 25.4596 49.3763 24.883C49.1618 24.3057 49.0184 23.729 49.0184 22.9358C49.0184 22.1418 49.1618 21.421 49.448 20.9168C49.7335 20.4126 50.0915 19.9794 50.5212 19.6194C50.9501 19.3317 51.5233 19.042 52.095 18.8986C52.6681 18.7544 53.2398 18.6109 53.8847 18.5378L55.602 18.3219C56.1744 18.2495 56.6751 18.1778 57.1048 18.106C57.5337 17.9612 57.8917 17.8177 58.1779 17.6011C58.4634 17.3845 58.5351 17.0962 58.5351 16.6637C58.5351 16.2312 58.4634 15.8705 58.3206 15.6539C58.1779 15.438 57.9634 15.2214 57.7482 15.0765C57.533 14.9324 57.2468 14.8606 56.9613 14.7889C56.6751 14.7165 56.3171 14.7165 55.9592 14.7165C55.1716 14.7165 54.5992 14.8606 54.1695 15.2214C53.7405 15.5814 53.4543 16.1588 53.3826 16.8796H49.4473C49.4473 16.0125 49.7328 15.22 50.0908 14.6426ZM57.8903 20.2663C57.6765 20.3388 57.3896 20.4112 57.1033 20.4822C56.8171 20.5554 56.5302 20.5554 56.1723 20.6271C55.8875 20.6988 55.5295 20.6988 55.2419 20.7712L54.3833 20.9871C54.0971 21.0596 53.8108 21.203 53.6681 21.3479C53.4536 21.4921 53.3101 21.7079 53.1667 21.9245C52.9529 22.2129 52.9529 22.5019 52.9529 22.8626C52.9529 23.2227 53.0246 23.511 53.1674 23.7276C53.3109 23.9435 53.4536 24.1608 53.6688 24.3049C53.8833 24.4491 54.1695 24.5215 54.4557 24.5933C54.7419 24.6643 55.0281 24.665 55.3854 24.665C56.173 24.665 56.7454 24.5215 57.1751 24.3049C57.6047 24.0173 57.8903 23.7276 58.1061 23.3676C58.3199 23.0068 58.4634 22.646 58.4634 22.286C58.5351 21.9252 58.5351 21.6383 58.5351 21.4203V19.907C58.3199 20.0504 58.1054 20.1953 57.8903 20.2663ZM68.4105 12.4802V14.4992H68.4822C68.9829 13.6335 69.6271 13.0569 70.4133 12.6961C71.2016 12.3354 72.0603 12.1188 72.8465 12.1188C73.9196 12.1188 74.7782 12.2636 75.4231 12.5513C76.1383 12.8396 76.6404 13.2728 76.9976 13.777C77.3555 14.2819 77.6411 14.931 77.8562 15.6518C77.999 16.3726 78.0707 17.1665 78.0707 18.1032V26.9716H74.1355V18.8247C74.1355 17.599 73.9203 16.7333 73.5623 16.1574C73.2044 15.58 72.5595 15.22 71.5582 15.22C70.485 15.22 69.6974 15.6525 69.1974 16.3008C68.696 16.9499 68.4815 18.0315 68.4815 19.4731V27.044H64.5463V12.4802H68.4105ZM86.8709 15.0751C86.2281 15.0751 85.726 15.22 85.2978 15.5083C84.8681 15.7959 84.5102 16.1567 84.2247 16.6623C83.9384 17.0948 83.795 17.5997 83.6508 18.1763C83.5081 18.7537 83.5081 19.2572 83.5081 19.8353C83.5081 20.3395 83.5798 20.9161 83.6508 21.4203C83.795 21.9984 83.937 22.4302 84.2247 22.8626C84.5102 23.2958 84.7971 23.6559 85.2268 23.9435C85.6557 24.2318 86.1564 24.3767 86.7999 24.3767C87.7316 24.3767 88.4468 24.0891 89.0185 23.5834C89.5207 23.0792 89.8786 22.3584 89.9496 21.4196H93.7428C93.4573 23.3668 92.7421 24.8092 91.5234 25.819C90.3076 26.8274 88.7337 27.3323 86.8006 27.3323C85.7274 27.3323 84.7254 27.1164 83.8667 26.7557C82.9356 26.3949 82.2205 25.89 81.577 25.2416C80.9343 24.5933 80.4315 23.8 80.0742 22.9344C79.7163 21.997 79.5735 21.0596 79.5735 19.9773C79.5735 18.824 79.7163 17.8142 80.0742 16.8775C80.4315 15.9401 80.8618 15.0744 81.5046 14.3536C82.1487 13.6328 82.9356 13.1279 83.795 12.6954C84.7246 12.3347 85.726 12.1181 86.8709 12.1181C87.7309 12.1181 88.5178 12.2629 89.3041 12.4788C90.0903 12.6947 90.8068 13.0555 91.3793 13.4879C92.0234 13.9211 92.5241 14.4978 92.8821 15.2186C93.2393 15.867 93.4552 16.7319 93.5255 17.67H89.662C89.52 15.9408 88.5896 15.0751 86.8709 15.0751ZM21.0384 8.36988H29.0524V10.3171H21.0384V8.36988ZM99.6809 23.511C100.254 24.0884 101.183 24.376 102.257 24.376C103.044 24.376 103.76 24.1601 104.332 23.7993C104.906 23.3654 105.263 22.9337 105.405 22.5005H108.841C108.268 24.2311 107.41 25.4575 106.264 26.2501C105.119 26.9709 103.76 27.4041 102.113 27.4041C100.968 27.4041 99.9664 27.1875 99.036 26.826C98.1556 26.4955 97.3694 25.9512 96.747 25.2409C96.1036 24.5926 95.6021 23.7993 95.3166 22.8612C94.9587 21.9231 94.8152 20.9147 94.8152 19.7607C94.8152 18.6799 94.9587 17.6707 95.3166 16.7319C95.6605 15.8283 96.1711 14.9964 96.8187 14.2812C97.4629 13.6328 98.2498 13.0555 99.1084 12.6954C100.039 12.3347 101.04 12.1181 102.114 12.1181C103.33 12.1181 104.403 12.334 105.262 12.8389C106.193 13.3438 106.908 13.9204 107.481 14.7854C108.054 15.5786 108.483 16.5153 108.769 17.5252C109.055 18.5343 109.127 19.6158 109.055 20.7698H98.6788C98.6781 21.8535 99.1084 22.9344 99.6809 23.511ZM104.26 15.9408C103.76 15.4359 102.972 15.1476 102.042 15.1476C101.398 15.1476 100.896 15.291 100.467 15.5076C100.037 15.7242 99.6802 16.0118 99.4664 16.3008C99.2526 16.5899 99.036 16.9499 98.965 17.3107C98.8939 17.6714 98.8222 17.9583 98.8222 18.2481H105.262C105.048 17.1665 104.69 16.4457 104.26 15.9408Z" fill="#595959"/>
</g>
</svg>
