<svg width="197" height="33" viewBox="0 0 197 33" fill="none" xmlns="http://www.w3.org/2000/svg">
<path d="M19.4637 21.2198L9.73187 11.5961L19.4637 1.97229H9.73187L0 11.5961L4.86594 16.462L9.73187 21.2198L14.5978 25.9776L19.4637 21.2198Z" fill="#595959"/>
<path d="M26.3839 16.4619L21.518 11.5959L16.6521 6.83813L11.8943 11.5959L21.518 21.2197L11.7861 30.8434H21.518L26.3839 26.0856L31.2499 21.2197L26.3839 16.4619Z" fill="#595959"/>
<path d="M43.361 11.596C41.9552 11.596 40.7658 12.0285 39.9007 13.0017C39.0357 13.9749 38.6032 15.2724 38.6032 17.0026C38.6032 18.7327 39.0357 20.0302 39.7926 21.0034C40.6577 21.9766 41.739 22.4092 43.2528 22.4092C44.226 22.4092 45.1992 22.1929 46.3886 21.8685V23.2742C45.4155 23.5986 44.3341 23.8149 43.0366 23.8149C41.0902 23.8149 39.5763 23.2742 38.495 22.0848C37.4137 20.8953 36.873 19.1652 36.873 17.0026C36.873 15.5968 37.0893 14.4074 37.63 13.4342C38.1706 12.461 38.9276 11.596 39.7926 11.0553C40.6577 10.5146 41.8471 10.1902 43.2528 10.1902C44.6585 10.1902 45.848 10.4065 46.9293 10.9472L46.2805 12.2448C45.4155 11.9204 44.4423 11.596 43.361 11.596Z" fill="#595959"/>
<path d="M56.8776 20.1385C56.8776 21.3279 56.4451 22.193 55.5801 22.8418C54.715 23.4905 53.6337 23.8149 52.1198 23.8149C50.4979 23.8149 49.3084 23.5987 48.4434 23.1661V21.6523C48.984 21.8686 49.6328 22.0848 50.1735 22.193C50.7141 22.3011 51.4711 22.4092 52.1198 22.4092C53.2012 22.4092 53.9581 22.193 54.3906 21.8686C54.9313 21.436 55.1475 20.8954 55.1475 20.2466C55.1475 19.8141 55.0394 19.3815 54.8231 19.1653C54.6069 18.8409 54.2825 18.6246 53.85 18.3002C53.4174 18.084 52.7686 17.7596 51.9036 17.4352C50.7141 17.0026 49.7409 16.462 49.3084 15.8132C48.7678 15.1644 48.5515 14.4075 48.5515 13.4343C48.5515 12.4611 48.984 11.596 49.7409 10.9472C50.4979 10.2985 51.5792 10.0822 52.7686 10.0822C54.0662 10.0822 55.2557 10.2985 56.4451 10.8391L56.0126 12.1367C54.9313 11.7042 53.85 11.4879 52.7686 11.4879C51.9036 11.4879 51.3629 11.7042 50.8223 12.0286C50.3897 12.353 50.1735 12.8936 50.1735 13.5424C50.1735 13.9749 50.2816 14.4075 50.3897 14.6237C50.606 14.9481 50.8223 15.1644 51.2548 15.3807C51.6873 15.5969 52.228 15.9213 53.093 16.2457C54.4987 16.7864 55.4719 17.327 56.0126 17.8677C56.6614 18.5165 56.8776 19.2734 56.8776 20.1385Z" fill="#595959"/>
<path d="M67.1501 20.1385C67.1501 21.3279 66.7176 22.193 65.8525 22.8418C64.9875 23.4905 63.9062 23.8149 62.3923 23.8149C60.7703 23.8149 59.5809 23.5987 58.7158 23.1661V21.6523C59.2565 21.8686 59.9053 22.0848 60.4459 22.193C60.9866 22.3011 61.7435 22.4092 62.3923 22.4092C63.4736 22.4092 64.2305 22.193 64.6631 21.8686C65.2037 21.436 65.42 20.8954 65.42 20.2466C65.42 19.8141 65.3119 19.3815 65.0956 19.1653C64.8793 18.8409 64.5549 18.6246 64.1224 18.3002C63.6899 18.084 63.0411 17.7596 62.176 17.4352C60.9866 17.0026 60.0134 16.462 59.5809 15.8132C59.0402 15.1644 58.824 14.4075 58.824 13.4343C58.824 12.4611 59.2565 11.596 60.0134 10.9472C60.7703 10.2985 61.8516 10.0822 63.0411 10.0822C64.3387 10.0822 65.5281 10.2985 66.7176 10.8391L66.2851 12.1367C65.2037 11.7042 64.1224 11.4879 63.0411 11.4879C62.176 11.4879 61.6354 11.7042 61.0947 12.0286C60.6622 12.353 60.4459 12.8936 60.4459 13.5424C60.4459 13.9749 60.5541 14.4075 60.6622 14.6237C60.8785 14.9481 61.0947 15.1644 61.5272 15.3807C61.9598 15.5969 62.5004 15.9213 63.3655 16.2457C64.7712 16.7864 65.7444 17.327 66.2851 17.8677C66.8257 18.5165 67.1501 19.2734 67.1501 20.1385Z" fill="#595959"/>
<path d="M80.6663 16.7863C80.6663 18.9489 80.0176 20.679 78.8281 21.8685C77.6387 23.0579 75.9085 23.7067 73.6378 23.7067H69.3125V10.4065H73.854C76.0167 10.4065 77.6387 10.9472 78.8281 12.0285C80.0176 13.1098 80.6663 14.7318 80.6663 16.7863ZM76.9899 16.8944C76.9899 15.705 76.7736 14.7318 76.2329 14.1911C75.8004 13.6504 75.0435 13.3261 74.0703 13.3261H72.989V20.7872H73.7459C74.8272 20.7872 75.5841 20.4628 76.1248 19.814C76.7736 19.1652 76.9899 18.192 76.9899 16.8944Z" fill="#595959"/>
<path d="M87.8031 23.923C86.073 23.923 84.7754 23.4904 83.8022 22.5172C82.829 21.6522 82.3965 20.3546 82.3965 18.6245C82.3965 16.8944 82.829 15.5968 83.6941 14.6236C84.5591 13.6504 85.8567 13.2179 87.4787 13.2179C88.9925 13.2179 90.182 13.6504 91.047 14.4073C91.9121 15.1643 92.3446 16.3537 92.3446 17.8676V19.4895H85.9648C85.9648 20.0302 86.1811 20.4627 86.6136 20.8953C87.0462 21.2197 87.5868 21.4359 88.2356 21.4359C88.8844 21.4359 89.4251 21.3278 89.9657 21.2197C90.5064 21.1115 91.047 20.8953 91.6958 20.5709V23.166C91.1552 23.4904 90.6145 23.5986 89.9657 23.7067C89.3169 23.8148 88.6681 23.923 87.8031 23.923ZM87.5868 15.7049C87.1543 15.7049 86.8299 15.8131 86.5055 16.1375C86.1811 16.3537 86.073 16.7862 85.9648 17.3269H88.9925C88.9925 16.7862 88.8844 16.4619 88.56 16.1375C88.4519 15.8131 88.1275 15.7049 87.5868 15.7049Z" fill="#595959"/>
<path d="M102.293 20.5709C102.293 21.6522 101.968 22.5173 101.211 23.0579C100.455 23.5986 99.3732 23.923 97.9675 23.923C97.2106 23.923 96.5618 23.923 96.0211 23.8149C95.4805 23.7067 94.8317 23.5986 94.291 23.3823V20.5709C94.8317 20.7872 95.4805 21.0034 96.1293 21.2197C96.778 21.3278 97.3187 21.436 97.8594 21.436C98.6163 21.436 99.0488 21.2197 99.0488 20.8953C99.0488 20.679 98.9407 20.5709 98.7244 20.4628C98.5082 20.3546 97.8594 20.0303 96.8862 19.5977C95.913 19.1652 95.2642 18.7327 94.9398 18.3001C94.6154 17.7595 94.3991 17.2188 94.3991 16.4619C94.3991 15.4887 94.7235 14.7318 95.4805 14.1911C96.2374 13.6505 97.2106 13.4342 98.6163 13.4342C99.2651 13.4342 99.9139 13.5423 100.563 13.6505C101.211 13.7586 101.752 13.9749 102.401 14.2993L101.428 16.57C100.995 16.3538 100.455 16.1375 99.9139 16.0294C99.3732 15.9212 98.9407 15.8131 98.6163 15.8131C98.0756 15.8131 97.7512 15.9212 97.7512 16.2456C97.7512 16.4619 97.8594 16.57 98.0756 16.6782C98.2919 16.7863 98.8326 17.0026 99.8057 17.4351C100.563 17.7595 101.103 17.9757 101.428 18.3001C101.752 18.6245 102.077 18.9489 102.185 19.2733C102.185 19.4896 102.293 20.0303 102.293 20.5709Z" fill="#595959"/>
<path d="M104.239 10.839C104.239 10.2984 104.347 9.86583 104.672 9.64957C104.996 9.4333 105.429 9.21704 106.077 9.21704C106.726 9.21704 107.267 9.32517 107.483 9.64957C107.808 9.86583 107.916 10.2984 107.916 10.839C107.916 11.9203 107.267 12.3529 105.969 12.3529C104.78 12.461 104.239 11.9203 104.239 10.839ZM107.808 23.7067H104.239V13.4342H107.808V23.7067Z" fill="#595959"/>
<path d="M120.026 13.4342V15.1643L118.621 15.7049C118.837 16.0293 118.945 16.4619 118.945 16.8944C118.945 17.9757 118.512 18.8408 117.756 19.4895C116.999 20.1383 115.809 20.3546 114.295 20.3546C113.863 20.3546 113.647 20.3546 113.43 20.2465C113.322 20.3546 113.322 20.5709 113.322 20.679C113.322 20.8953 113.43 21.0034 113.755 21.1115C114.079 21.2197 114.403 21.2197 114.836 21.2197H116.566C118.837 21.2197 120.026 22.1928 120.026 24.1392C120.026 25.4368 119.486 26.41 118.404 27.0588C117.323 27.7076 115.809 28.1401 113.863 28.1401C112.457 28.1401 111.268 27.9238 110.511 27.3832C109.754 26.9506 109.321 26.1937 109.321 25.3287C109.321 24.1392 110.078 23.2742 111.592 22.9498C111.268 22.8416 111.051 22.6254 110.727 22.301C110.511 21.9766 110.403 21.7603 110.403 21.4359C110.403 21.1115 110.511 20.7871 110.619 20.5709C110.835 20.3546 111.16 20.0302 111.7 19.7058C111.16 19.4895 110.727 19.057 110.403 18.6245C110.078 18.0838 109.97 17.5432 109.97 16.7862C109.97 15.7049 110.403 14.8399 111.16 14.1911C111.916 13.5423 112.998 13.2179 114.403 13.2179C114.62 13.2179 114.944 13.2179 115.377 13.326C115.809 13.326 116.134 13.4342 116.35 13.4342H120.026ZM112.241 25.0043C112.241 25.3287 112.349 25.5449 112.673 25.7612C112.998 25.9775 113.43 25.9775 113.971 25.9775C114.836 25.9775 115.485 25.8693 116.025 25.6531C116.566 25.4368 116.782 25.1124 116.782 24.788C116.782 24.4636 116.674 24.3555 116.35 24.2473C116.025 24.1392 115.593 24.0311 114.944 24.0311H113.538C113.106 24.0311 112.89 24.1392 112.565 24.2473C112.349 24.4636 112.241 24.6799 112.241 25.0043ZM113.322 16.7862C113.322 17.8676 113.647 18.4082 114.403 18.4082C114.728 18.4082 115.052 18.3001 115.16 17.9757C115.377 17.7594 115.485 17.3269 115.485 16.7862C115.485 15.7049 115.16 15.1643 114.403 15.1643C113.755 15.1643 113.322 15.7049 113.322 16.7862Z" fill="#595959"/>
<path d="M128.028 23.7067V18.0839C128.028 17.4351 127.92 16.8944 127.704 16.57C127.488 16.2456 127.163 16.0294 126.731 16.0294C126.082 16.0294 125.649 16.2456 125.433 16.7863C125.217 17.2188 125 18.0839 125 19.2733V23.8149H121.432V13.5423H124.135L124.568 14.8399H124.784C125.109 14.4074 125.541 13.9749 126.082 13.7586C126.622 13.5423 127.271 13.4342 127.92 13.4342C129.109 13.4342 129.975 13.7586 130.623 14.4074C131.272 15.0562 131.597 16.0294 131.597 17.2188V23.923H128.028V23.7067Z" fill="#595959"/>
<path d="M142.95 23.7067L141.328 19.4896H136.03L134.408 23.7067H132.894L138.193 10.4065H139.49L144.68 23.7067H142.95ZM140.788 18.0839L139.274 13.9748C139.058 13.4342 138.841 12.7854 138.625 12.0285C138.517 12.5691 138.301 13.2179 138.084 13.9748L136.571 18.0839H140.788Z" fill="#595959"/>
<path d="M154.304 23.7067L152.466 17.8676C152.358 17.5432 152.142 16.6781 151.817 15.4887H151.709C151.493 16.57 151.276 17.3269 151.06 17.9757L149.222 23.8148H147.492L144.789 13.8667H146.411C147.059 16.3537 147.492 18.3001 147.924 19.5977C148.249 20.8953 148.465 21.7603 148.465 22.1929H148.573C148.681 21.8685 148.789 21.4359 148.898 20.8953C149.006 20.3546 149.222 19.9221 149.33 19.5977L151.168 13.8667H152.79L154.52 19.5977C154.845 20.679 155.061 21.5441 155.169 22.1929H155.277C155.277 21.9766 155.385 21.6522 155.494 21.2197C155.602 20.7871 156.251 18.3001 157.332 13.8667H158.846L156.142 23.8148H154.304V23.7067Z" fill="#595959"/>
<path d="M166.739 23.7068L166.415 22.3011H166.307C165.766 22.9499 165.334 23.3824 164.793 23.5987C164.252 23.8149 163.712 23.9231 162.955 23.9231C161.981 23.9231 161.225 23.7068 160.684 23.1661C160.143 22.6255 159.819 21.9767 159.819 21.0035C159.819 18.949 161.441 17.9758 164.685 17.8677L166.415 17.7595V17.1108C166.415 16.3538 166.199 15.705 165.874 15.3806C165.55 15.0562 165.009 14.84 164.252 14.84C163.387 14.84 162.522 15.0562 161.441 15.5969L161.008 14.4075C161.549 14.1912 161.981 13.9749 162.63 13.7587C163.171 13.6505 163.82 13.5424 164.36 13.5424C165.55 13.5424 166.415 13.7587 166.956 14.2993C167.496 14.84 167.821 15.705 167.821 16.7864V23.5987H166.739V23.7068ZM163.279 22.6255C164.252 22.6255 164.901 22.4092 165.442 21.8686C165.982 21.3279 166.199 20.6791 166.199 19.7059V18.8409L164.685 18.949C163.495 18.949 162.63 19.1653 162.09 19.4897C161.549 19.8141 161.333 20.3547 161.333 21.0035C161.333 21.5442 161.549 21.9767 161.873 22.193C162.306 22.5173 162.738 22.6255 163.279 22.6255Z" fill="#595959"/>
<path d="M175.498 13.5424C175.931 13.5424 176.363 13.5424 176.688 13.6505L176.471 15.0562C176.039 14.9481 175.714 14.9481 175.39 14.9481C174.633 14.9481 173.876 15.2725 173.335 15.9213C172.795 16.5701 172.47 17.4351 172.47 18.4083V23.7068H170.957V13.7587H172.146L172.362 15.5969H172.47C172.795 14.9481 173.335 14.4075 173.768 14.0831C174.309 13.7587 174.849 13.5424 175.498 13.5424Z" fill="#595959"/>
<path d="M185.338 22.409C184.581 23.3822 183.5 23.9229 182.094 23.9229C180.797 23.9229 179.824 23.4904 179.067 22.6253C178.31 21.7602 177.985 20.4627 177.985 18.8407C177.985 17.2187 178.31 15.9211 179.067 15.0561C179.824 14.191 180.797 13.6504 182.094 13.6504C183.392 13.6504 184.473 14.191 185.23 15.1642H185.338L185.23 14.4073V13.7585V9.54138H186.744V23.7066H185.555L185.338 22.409ZM182.311 22.6253C183.392 22.6253 184.041 22.3009 184.581 21.7602C185.014 21.2196 185.23 20.2464 185.23 19.0569V18.7326C185.23 17.3268 185.014 16.3537 184.473 15.7049C184.041 15.0561 183.284 14.8398 182.202 14.8398C181.337 14.8398 180.689 15.1642 180.148 15.9211C179.715 16.5699 179.391 17.5431 179.391 18.8407C179.391 20.1383 179.607 21.1115 180.04 21.7602C180.689 22.3009 181.337 22.6253 182.311 22.6253Z" fill="#595959"/>
<path d="M196.368 21.0035C196.368 21.9767 196.043 22.6255 195.286 23.1661C194.638 23.7068 193.664 23.9231 192.367 23.9231C191.069 23.9231 189.988 23.7068 189.231 23.2743V21.8686C189.663 22.0848 190.204 22.3011 190.745 22.4092C191.285 22.5173 191.826 22.6255 192.367 22.6255C193.124 22.6255 193.772 22.5173 194.205 22.3011C194.638 22.0848 194.854 21.6523 194.854 21.1116C194.854 20.6791 194.638 20.3547 194.313 20.1384C193.989 19.814 193.34 19.4897 192.367 19.1653C191.394 18.8409 190.745 18.5165 190.42 18.3002C189.988 18.0839 189.772 17.7595 189.555 17.4351C189.339 17.1108 189.231 16.6782 189.231 16.2457C189.231 15.4888 189.555 14.84 190.204 14.2993C190.853 13.7587 191.718 13.5424 192.907 13.5424C193.989 13.5424 195.07 13.7587 196.043 14.1912L195.503 15.3806C194.529 14.9481 193.556 14.7318 192.799 14.7318C192.042 14.7318 191.502 14.84 191.177 15.0562C190.853 15.2725 190.637 15.5969 190.637 16.0294C190.637 16.2457 190.745 16.5701 190.853 16.6782C190.961 16.8945 191.177 17.0026 191.502 17.2189C191.826 17.4351 192.367 17.6514 193.232 17.9758C194.421 18.4083 195.178 18.8409 195.611 19.2734C196.151 19.8141 196.368 20.3547 196.368 21.0035Z" fill="#595959"/>
</svg>
