<svg width="121" height="33" viewBox="0 0 121 33" fill="none" xmlns="http://www.w3.org/2000/svg">
<mask id="mask0_843_1297" style="mask-type:luminance" maskUnits="userSpaceOnUse" x="0" y="0" width="121" height="33">
<path d="M121 0H0V33H121V0Z" fill="white"/>
</mask>
<g mask="url(#mask0_843_1297)">
<path d="M49.2931 7.18761C49.2299 8.14843 48.7568 9.10484 47.6719 9.66017C46.4804 10.2684 45.3308 9.6183 45.1956 8.3093C45.0796 7.17145 45.8156 5.88229 46.8484 5.41951C48.1346 4.84508 49.2901 5.57671 49.2931 7.18761Z" fill="#595959"/>
<path d="M119.274 18.3341C118.718 17.5893 118.47 17.557 117.82 18.2291C117.028 19.0459 116.165 19.7695 115.176 20.338C113.527 21.2849 111.405 21.2761 110.192 20.2998C109.752 19.9458 109.261 19.5271 109.449 18.8968C109.634 18.2842 110.256 18.4803 110.721 18.4421C113.32 18.2261 115.564 17.3557 116.961 15.0264C118.756 12.0359 117.067 8.37122 113.751 8.12441C112.005 7.99513 110.456 8.60775 109.144 9.77719C107.157 11.5489 106.267 13.832 105.909 16.3846C105.607 18.5134 104.256 19.9693 102.535 21.0821C101.541 21.7264 100.764 21.1644 100.836 19.9656C100.889 19.0731 101.063 18.1953 101.281 17.3248C102.116 14.0061 103.08 10.7203 104.035 7.43318C104.642 5.34848 105.265 3.26818 105.883 1.18715C105.997 0.801504 106.077 0.420263 105.628 0.182263C104.564 -0.383354 102.973 0.253516 102.651 1.37079C101.542 5.2001 100.37 9.01103 99.3606 12.8645C98.9346 14.4887 97.951 14.8993 96.5223 15.0712C95.6687 15.1762 95.4101 14.9294 95.2867 14.0971C95.2294 13.7196 95.1942 13.3361 95.1244 12.9593C94.5434 9.73825 91.8769 8.49096 88.9849 10.0813C88.6301 10.2774 88.2657 10.5903 87.8529 10.2605C87.4482 9.93879 87.6391 9.51348 87.7618 9.1271C88.4251 7.03137 89.0877 4.93639 89.7657 2.84728C90.349 1.04832 90.3012 0.96972 88.42 1.00718C87.1903 1.03142 87.1036 1.09092 86.7635 2.27211C85.6771 6.05366 84.5966 9.83522 83.5123 13.6182C83.0518 15.2291 82.2335 15.8843 80.5557 15.985C79.7249 16.0357 79.4112 15.783 79.3591 14.9669C79.2923 13.9583 79.0572 13.0012 78.5592 12.1153C77.7563 10.6851 76.3136 10.0372 74.7005 10.3677C74.057 10.5 73.4847 10.7886 72.9096 11.0781C72.5761 11.2455 72.2272 11.3814 71.8988 11.0935C71.5903 10.8261 71.7005 10.4889 71.8033 10.1679C72.1412 9.09624 72.4835 8.02524 72.8244 6.95498C73.2372 5.66361 73.6669 4.38032 74.057 3.08307C74.3604 2.07524 74.1238 1.80272 73.0881 1.88132C72.806 1.90189 72.5188 1.94376 72.2382 1.92392C71.4977 1.86883 71.1209 2.18396 70.9174 2.90163C69.7745 6.93074 68.5257 10.9319 67.4995 14.994C67.3276 15.6772 66.9662 16.1201 66.3418 16.4191C65.8195 16.6689 65.2774 16.8121 64.7089 16.8672C63.8156 16.9531 63.4564 16.6667 63.416 15.78C63.3727 14.8178 63.1464 13.9157 62.6881 13.0658C61.8661 11.5453 60.325 10.8724 58.6428 11.2984C58.0081 11.4593 57.4315 11.7392 56.8784 12.0719C56.6205 12.2262 56.3532 12.3077 56.0836 12.1087C55.8213 11.9169 55.7824 11.64 55.8412 11.3513C55.8926 11.1016 55.9675 10.857 56.0439 10.6131C56.7168 8.49463 57.4029 6.37981 58.0618 4.25691C58.4746 2.93249 58.2513 2.67098 56.8909 2.80026C56.6852 2.8201 56.478 2.84728 56.2716 2.83846C55.5694 2.80687 55.1852 3.13596 54.9927 3.80074C53.6162 8.56295 52.241 13.3229 51.0055 18.1226C50.3987 20.4717 48.9943 22.35 47.1755 23.9323C46.7259 24.3223 46.1529 24.6573 45.5469 24.3216C44.9475 23.9888 44.9549 23.3409 45.0107 22.7503C45.101 21.8094 45.2619 20.8779 45.4918 19.959C46.0435 17.7523 46.7274 15.5824 47.39 13.4074C47.6529 12.545 47.4252 12.2659 46.5276 12.2989C46.1662 12.3114 45.8048 12.3408 45.4426 12.3379C44.8109 12.3342 44.4495 12.6163 44.2827 13.2333C43.7965 15.033 43.2389 16.8143 42.7761 18.6206C42.2237 20.7758 40.9214 22.4749 39.45 24.0615C38.9586 24.5912 38.3122 25.2126 37.4961 24.7587C36.7145 24.3223 36.8614 23.4915 36.9885 22.7533C37.4601 20.0178 38.5054 17.4556 39.4324 14.8574C39.8379 13.7196 39.6344 13.4404 38.3996 13.4353C37.1082 13.4287 35.8168 13.414 34.5247 13.3765C33.8849 13.3582 33.3619 13.1576 33.2613 12.404C33.2055 11.986 32.9065 11.8046 32.4826 11.8273C32.1484 11.8464 31.8127 11.8758 31.477 11.878C30.857 11.8795 30.5404 12.1931 30.4207 12.7786C29.4562 17.5437 27.8703 22.0834 25.361 26.2851C25.2126 26.5348 25.0775 26.814 25.278 27.0725C25.6945 27.6095 26.2271 28.0767 26.8933 28.1869C27.5243 28.289 27.6962 27.636 27.9452 27.2136C29.6545 24.3069 30.8592 21.1842 31.892 17.9948C32.5568 15.9372 32.5487 15.9365 34.7069 16.1921C35.5487 16.2913 35.7867 16.6439 35.5113 17.4482C35.1638 18.4641 34.7745 19.4654 34.4292 20.4805C33.9349 21.9445 33.655 23.4408 33.7667 24.9967C33.9327 27.3017 35.9997 28.6217 38.191 27.8189C39.2201 27.442 39.9686 26.7082 40.7171 25.9611C41.5156 25.1612 41.7867 25.2009 42.3266 26.1573C42.9466 27.2591 44.044 27.7755 45.4022 27.5948C46.4328 27.4582 47.3327 27.0255 48.0797 26.3189C48.6586 25.7724 49.2168 25.2031 49.7465 24.611C50.4443 23.8331 50.7308 23.8463 51.2766 24.7719C52.1757 26.2961 53.5295 27.0189 55.2991 27.0637C57.0437 27.11 58.4555 26.3776 59.6859 25.2538C61.1411 23.9212 62.0622 22.2486 62.7057 20.413C62.8541 19.992 63.0113 19.5689 63.5556 19.5462C64.2307 19.5197 64.8903 19.4161 65.5522 19.2979C66.1332 19.1936 66.4388 19.4786 66.4696 20.0449C66.4931 20.4783 66.4762 20.9132 66.499 21.3473C66.7142 25.3066 70.2673 27.3458 73.8587 25.5579C76.0888 24.4472 77.414 22.5307 78.255 20.316C78.6987 19.1502 79.1931 18.365 80.5829 18.5596C80.7056 18.5765 80.837 18.5214 80.9641 18.4979C82.1762 18.282 82.3121 18.3922 82.3304 19.613C82.3444 20.5643 82.4773 21.4942 82.8101 22.3919C83.3507 23.8529 84.4188 24.741 85.9144 25.1289C87.9175 25.6467 89.6342 25.0113 91.1533 23.742C92.4836 22.6313 93.5296 21.2592 94.0571 19.6461C94.5338 18.1909 95.2963 17.4504 96.858 17.601C96.9072 17.6076 96.9579 17.5856 97.0093 17.5812C97.8048 17.4997 98.0715 17.7421 97.9921 18.5222C97.9194 19.2318 97.7703 19.9347 97.8122 20.5577C97.8122 20.8331 97.8114 21.0124 97.8122 21.1901C97.8291 24.4656 100.285 24.8688 102.347 24.157C102.73 24.0248 103.088 23.7956 103.426 23.5657C104.199 23.0398 104.837 22.3713 105.425 21.6558C106.144 20.778 106.382 20.7692 107.074 21.6331C107.943 22.7202 109.06 23.4247 110.436 23.6627C113.895 24.2628 116.716 23.0302 119.112 20.6377C120.142 19.6123 120.146 19.5021 119.274 18.3341ZM60.1354 17.7119C59.8247 19.7217 59.1247 21.5633 57.6247 23.0243C57.3514 23.2895 57.0356 23.5297 56.6977 23.706C55.3461 24.4061 54.0444 23.7545 53.816 22.2729C53.7572 21.896 53.7667 21.5104 53.7403 21.066C53.8799 18.9548 54.4638 16.9583 55.9815 15.3099C56.3847 14.8706 56.8652 14.5225 57.4293 14.3094C58.7501 13.8085 59.8137 14.3836 60.1399 15.7352C60.2993 16.4 60.2353 17.0597 60.1354 17.7119ZM76.1329 15.9203C75.9742 18.1351 75.283 20.1529 73.8087 21.8659C73.5619 22.1539 73.26 22.4124 72.9382 22.6189C71.3927 23.6069 69.8839 23.0243 69.7076 21.2246C69.4285 18.3679 70.2482 15.8182 72.5056 13.8746C73.188 13.2884 74.0482 12.9314 74.9414 13.3633C75.9933 13.8687 76.1446 14.8728 76.1329 15.9203ZM91.9459 15.9754C91.6785 17.7509 91.0079 19.3552 89.8921 20.7744C89.574 21.1784 89.2089 21.5324 88.7542 21.791C87.0978 22.7298 85.7014 21.993 85.5669 20.1022C85.55 19.8738 85.5633 19.6439 85.5633 19.4147C85.6235 17.2947 86.2148 15.3496 87.6054 13.6968C88.193 12.9997 88.8923 12.4363 89.8553 12.3371C90.8654 12.235 91.5243 12.6713 91.8592 13.6344C92.1281 14.4057 92.0664 15.1865 91.9459 15.9754ZM109.253 15.2144C109.546 13.9892 110.021 12.8344 110.918 11.903C111.164 11.6474 111.456 11.424 111.762 11.2433C112.679 10.6946 113.56 10.7012 114.131 11.2242C114.727 11.77 114.859 12.819 114.377 13.7122C113.486 15.3621 111.93 15.9424 110.378 16.1694C109.43 16.173 109.097 15.8667 109.253 15.2144ZM26.0515 14.9169C25.7481 21.0065 23.6957 26.2844 18.5868 30.0483C15.2651 32.4944 11.4453 33.2635 7.36776 32.9528C5.49975 32.8088 3.69198 32.3967 1.97456 31.6452C0.877114 31.1648 0.790435 30.9077 1.29949 29.8279C2.14277 28.0466 2.14277 28.0488 3.91749 28.8245C4.06 28.8869 4.2025 28.9486 4.34795 28.9986C5.25441 29.3159 5.58055 29.1661 5.82663 28.2559C6.32394 26.4056 6.78157 24.5449 7.28695 22.6967C8.30507 18.9783 9.34448 15.2614 10.3795 11.5475C10.6807 10.4676 10.7886 10.3957 11.9375 10.3538C12.2717 10.342 12.6089 10.32 12.9431 10.3068C13.782 10.2715 14.0362 10.5624 13.8062 11.3734C13.2788 13.2421 12.7169 15.0998 12.1836 16.9671C11.1111 20.7259 10.1062 24.503 9.16378 28.2956C8.8031 29.7434 9.12484 30.0659 10.6623 29.9006C14.6194 29.4768 17.5805 27.4516 19.7122 24.2437C22.1289 20.6076 23.1022 16.616 22.3294 12.2732C21.495 7.59405 17.651 4.84163 12.88 5.52037C10.6366 5.84064 8.60403 6.66629 6.78378 8.00614C5.94049 8.62759 5.78183 8.59233 5.22208 7.71305C4.02547 5.8355 4.00637 5.80318 5.95812 4.63228C8.9581 2.83479 12.2218 1.9085 15.7293 2.31618C21.3936 2.97582 25.0562 6.71257 25.8671 12.4583C25.9817 13.2715 26.0632 14.0839 26.0515 14.9169Z" fill="#595959"/>
</g>
</svg>
