<svg width="37" height="84" viewBox="0 0 37 84" fill="none" xmlns="http://www.w3.org/2000/svg">
<g opacity="0.17">
<g filter="url(#filter0_i_843_483)">
<path d="M10.7435 31.1745C10.7435 31.1745 13.7782 26.8224 11.8155 20.7782C9.84608 14.7378 5.25968 12.4437 5.25968 12.4437C5.25968 12.4437 1.82762 17.6304 3.74574 23.5183C5.66042 29.4101 10.7435 31.1745 10.7435 31.1745Z" fill="white"/>
<path d="M15.236 34.2654C15.236 34.2654 20.5416 33.7929 23.5798 28.5147C26.6179 23.2403 24.2957 17.341 24.2957 17.341C24.2957 17.341 19.3702 18.4537 16.2498 23.8691C13.1329 29.2807 15.236 34.2654 15.236 34.2654Z" fill="white"/>
<path d="M15.7733 41.2392C13.3174 47.0586 15.9857 51.7002 15.9857 51.7002C15.9857 51.7002 21.1953 50.4578 23.5862 44.7909C25.9736 39.1164 22.9799 33.6058 22.9799 33.6058C22.9799 33.6058 18.2291 35.4198 15.7733 41.2392Z" fill="white"/>
<path d="M27.7645 45.9265C27.7645 45.9265 23.185 48.236 21.2326 54.2801C19.2803 60.3358 22.3253 64.6726 22.3253 64.6726C22.3253 64.6726 27.4014 62.8929 29.3058 56.9973C31.2069 51.1018 27.7645 45.9265 27.7645 45.9265Z" fill="white"/>
<path d="M31.5813 77.7559C31.5813 77.7559 35.9862 74.4214 36.2841 68.1676C36.5786 61.91 31.9375 58.061 31.9375 58.061C31.9375 58.061 28.1493 61.7385 27.8444 68.1562C27.5431 74.5701 31.5813 77.7559 31.5813 77.7559Z" fill="white"/>
<path d="M14.5598 19.5282C14.5598 19.5282 19.2557 17.7828 20.6328 11.5443C22.0131 5.30576 19.3448 0.564941 19.3448 0.564941C19.3448 0.564941 13.9056 2.76005 12.5595 8.84612C11.2168 14.9284 14.5598 19.5282 14.5598 19.5282Z" fill="white"/>
<path d="M10.7396 44.4406C10.7396 44.4406 12.483 39.2844 9.00644 34.1587C5.52301 29.0291 0.535901 28.3394 0.535901 28.3394C0.535901 28.3394 -1.36851 34.4216 2.02245 39.4216C5.4134 44.4254 10.7396 44.4406 10.7396 44.4406Z" fill="white"/>
<path d="M14.631 58.0458C14.631 58.0458 15.2989 52.5886 10.8873 48.4499C6.46875 44.3074 1.46796 44.8714 1.46796 44.8714C1.46796 44.8714 0.824012 51.2738 5.12607 55.3096C9.43498 59.3416 14.631 58.0458 14.631 58.0458Z" fill="white"/>
<path d="M20.5564 69.2952C20.5564 69.2952 19.7171 63.8686 14.3806 61.4142C9.04075 58.9524 4.43042 61.1741 4.43042 61.1741C4.43042 61.1741 5.56075 67.4927 10.7603 69.8937C15.9597 72.2831 20.5564 69.2952 20.5564 69.2952Z" fill="white"/>
<path d="M23.1454 73.9678C17.5829 72.2376 13.2397 75.0539 13.2397 75.0539C13.2397 75.0539 15.0379 81.1743 20.4565 82.8625C25.8822 84.5508 30.1226 80.9724 30.1226 80.9724C30.1226 80.9724 28.7079 75.6941 23.1454 73.9678Z" fill="white"/>
</g>
</g>
<defs>
<filter id="filter0_i_843_483" x="0.00292969" y="-0.41992" width="36.2946" height="83.7351" filterUnits="userSpaceOnUse" color-interpolation-filters="sRGB">
<feFlood flood-opacity="0" result="BackgroundImageFix"/>
<feBlend mode="normal" in="SourceGraphic" in2="BackgroundImageFix" result="shape"/>
<feColorMatrix in="SourceAlpha" type="matrix" values="0 0 0 0 0 0 0 0 0 0 0 0 0 0 0 0 0 0 127 0" result="hardAlpha"/>
<feOffset dy="-0.984861"/>
<feGaussianBlur stdDeviation="0.492432"/>
<feComposite in2="hardAlpha" operator="arithmetic" k2="-1" k3="1"/>
<feColorMatrix type="matrix" values="0 0 0 0 1 0 0 0 0 1 0 0 0 0 1 0 0 0 0.25 0"/>
<feBlend mode="normal" in2="shape" result="effect1_innerShadow_843_483"/>
</filter>
</defs>
</svg>
