<svg width="46" height="51" viewBox="0 0 46 51" fill="none" xmlns="http://www.w3.org/2000/svg">
<path d="M44.1061 22.6187C44.1061 10.9967 34.6846 1.5752 23.0626 1.5752C11.4406 1.5752 2.01917 10.9967 2.01917 22.6187C2.01917 34.2406 11.4406 43.6621 23.0626 43.6621C34.6846 43.6621 44.1061 34.2406 44.1061 22.6187Z" fill="#141414" stroke="#313131" stroke-width="0.956522"/>
<path d="M30.9611 29.8925L30.9648 29.892V24.2539C30.9648 21.4957 30.3932 19.3711 27.2889 19.3711C25.7966 19.3711 24.7951 20.2217 24.3863 21.0282H24.3431V19.6286H21.3998V29.892H24.4646V24.8099C24.4646 23.4718 24.7088 22.1779 26.3042 22.1779C27.876 22.1779 27.8994 23.705 27.8994 24.8958V29.8925H30.9611Z" fill="white"/>
<path d="M15.6606 19.3711H19.4867V29.8925H15.6606V19.3711Z" fill="white"/>
<path d="M17.5737 14.5879C16.5176 14.5879 15.6606 15.4408 15.6606 16.4919C15.6606 17.5431 16.5176 18.4139 17.5737 18.4139C18.6298 18.4139 19.4867 17.5431 19.4867 16.4919C19.4861 15.4408 18.6291 14.5879 17.5737 14.5879Z" fill="white"/>
</svg>
