<svg width="44" height="51" viewBox="0 0 44 51" fill="none" xmlns="http://www.w3.org/2000/svg">
<path d="M42.5338 22.1385C42.5338 10.6852 33.4467 1.40039 22.2371 1.40039C11.0274 1.40039 1.94031 10.6852 1.94031 22.1385C1.94031 33.5917 11.0274 42.8764 22.2371 42.8764C33.4467 42.8764 42.5338 33.5917 42.5338 22.1385Z" fill="#141414" stroke="#313131" stroke-width="0.977778"/>
<path d="M25.6395 16.8659H30.5192V17.9974H25.6395V16.8659ZM20.75 21.3429C21.8287 20.8495 22.3938 20.0991 22.3938 18.9395C22.3938 16.6462 20.6081 16.0898 18.5462 16.0898H12.8716V27.601H18.7052C20.8919 27.601 22.9441 26.5958 22.9441 24.258C22.9441 22.8132 22.2298 21.7448 20.75 21.3429ZM15.5181 18.0535H18.0007C18.9572 18.0535 19.8156 18.3083 19.8156 19.3697C19.8156 20.3469 19.1478 20.7397 18.2013 20.7397H15.5181V18.0535ZM18.3432 25.6467H15.5157V22.4766H18.3994C19.5637 22.4766 20.3 22.9418 20.3 24.1201C20.3 25.2797 19.4219 25.6467 18.3432 25.6467ZM32.4271 23.5543C32.4271 21.088 30.918 19.0331 28.1882 19.0331C25.5343 19.0331 23.7292 20.943 23.7292 23.4468C23.7292 26.0417 25.439 27.8232 28.1882 27.8232C30.2698 27.8232 31.6175 26.9277 32.2656 25.0178H30.1548C29.9248 25.7307 28.9905 26.1048 28.2641 26.1048C26.8602 26.1048 26.1263 25.3195 26.1263 23.9845H32.4099C32.4173 23.8466 32.4271 23.7017 32.4271 23.5543ZM26.1263 22.5398C26.2021 21.4433 26.9677 20.7584 28.1124 20.7584C29.3158 20.7584 29.9176 21.434 30.0227 22.5398H26.1263Z" fill="white"/>
</svg>
