<svg width="46" height="51" viewBox="0 0 46 51" fill="none" xmlns="http://www.w3.org/2000/svg">
<path d="M44.0434 22.6187C44.0434 10.9967 34.622 1.5752 22.9999 1.5752C11.378 1.5752 1.95654 10.9967 1.95654 22.6187C1.95654 34.2406 11.378 43.6621 22.9999 43.6621C34.622 43.6621 44.0434 34.2406 44.0434 22.6187Z" fill="#141414" stroke="#313131" stroke-width="0.956522"/>
<path d="M22.8384 32.0058C17.8305 32.0058 13.7515 27.9269 13.7515 22.919C13.7515 17.911 17.8305 13.832 22.8384 13.832C27.8463 13.832 31.9254 17.911 31.9254 22.919C31.9254 27.9269 27.8463 32.0058 22.8384 32.0058ZM30.5037 24.1628C30.2372 24.078 28.1007 23.4399 25.6654 23.8317C26.6791 26.6224 27.0951 28.8921 27.1759 29.3646C28.9165 28.1853 30.1564 26.3195 30.5037 24.1628ZM25.8714 30.0754C25.7543 29.3969 25.3019 27.0222 24.2155 24.1912L24.1671 24.2072C19.7852 25.7338 18.2141 28.771 18.0809 29.0577C19.3894 30.0835 21.0492 30.6973 22.8424 30.6973C23.9127 30.6933 24.9344 30.4752 25.8714 30.0754ZM17.0752 28.1207C17.2489 27.8178 19.3813 24.2921 23.3836 22.9957C23.4846 22.9594 23.5856 22.931 23.6865 22.9028C23.4927 22.4585 23.2786 22.0183 23.0565 21.5862C19.1834 22.7413 15.4235 22.6968 15.0802 22.6847L15.0761 22.923C15.0802 24.9221 15.8353 26.7435 17.0752 28.1207ZM15.2376 21.3399C15.5849 21.3479 18.7835 21.36 22.4143 20.3948C21.126 18.1089 19.7407 16.1865 19.5348 15.9039C17.366 16.9296 15.7465 18.9288 15.2376 21.3399ZM21.021 15.3869C21.235 15.6776 22.6445 17.5919 23.9127 19.9303C26.671 18.8964 27.8423 17.3254 27.9836 17.1275C26.6105 15.9039 24.8092 15.1688 22.8384 15.1688C22.2124 15.1688 21.6066 15.2415 21.021 15.3869ZM28.8479 18.0241C28.6863 18.2422 27.3819 19.9102 24.5144 21.0813C24.6962 21.4529 24.8698 21.8286 25.0313 22.2081C25.092 22.3455 25.1444 22.4787 25.1969 22.6079C27.7817 22.2808 30.3463 22.8058 30.6047 22.8583C30.5885 21.0248 29.9383 19.3448 28.856 18.0241H28.8479Z" fill="white"/>
</svg>
