<svg width="44" height="51" viewBox="0 0 44 51" fill="none" xmlns="http://www.w3.org/2000/svg">
<path d="M43.0067 22.1385C43.0067 10.6852 33.722 1.40039 22.2686 1.40039C10.8153 1.40039 1.53064 10.6852 1.53064 22.1385C1.53064 33.5917 10.8153 42.8764 22.2686 42.8764C33.722 42.8764 43.0067 33.5917 43.0067 22.1385Z" fill="#141414" stroke="#313131" stroke-width="0.977778"/>
<path d="M25.7704 15.1123H19.1978C18.1248 15.1135 17.096 15.5402 16.3374 16.2989C15.5786 17.0576 15.1519 18.0863 15.1508 19.1593V25.7309C15.1519 26.804 15.5786 27.8328 16.3373 28.5917C17.0959 29.3506 18.1247 29.7776 19.1978 29.779H25.7704C26.8435 29.7776 27.8722 29.3506 28.6309 28.5917C29.3895 27.8328 29.8162 26.804 29.8174 25.7309V19.1593C29.8162 18.0863 29.3895 17.0576 28.6308 16.2989C27.8721 15.5402 26.8434 15.1135 25.7704 15.1123ZM22.4835 25.7711C21.82 25.7711 21.1712 25.5742 20.6194 25.2055C20.0676 24.8368 19.6376 24.3127 19.3837 23.6995C19.1297 23.0865 19.0634 22.4118 19.193 21.7609C19.3224 21.11 19.6422 20.5122 20.1115 20.0429C20.5808 19.5738 21.1788 19.2544 21.8297 19.125C22.4806 18.9956 23.1552 19.0622 23.7683 19.3164C24.3814 19.5705 24.9053 20.0007 25.2738 20.5526C25.6423 21.1045 25.8389 21.7533 25.8387 22.4169C25.8367 23.3061 25.4825 24.1582 24.8537 24.7868C24.2249 25.4154 23.3727 25.7693 22.4835 25.7711ZM27.4241 18.8643C27.268 19.0205 27.0624 19.1175 26.8427 19.1391C26.623 19.1606 26.4026 19.1053 26.2191 18.9825C26.0356 18.8598 25.9003 18.6772 25.8363 18.4659C25.7724 18.2546 25.7836 18.0276 25.8682 17.8237C25.9528 17.6197 26.1055 17.4514 26.3003 17.3475C26.4949 17.2435 26.7198 17.2103 26.9363 17.2534C27.1528 17.2967 27.3477 17.4136 27.4877 17.5843C27.6276 17.755 27.7041 17.9691 27.7039 18.1899C27.7028 18.4427 27.6024 18.685 27.4241 18.8643Z" fill="white"/>
</svg>
