<svg width="46" height="51" viewBox="0 0 46 51" fill="none" xmlns="http://www.w3.org/2000/svg">
<path d="M44.0434 22.6187C44.0434 10.9967 34.622 1.5752 22.9999 1.5752C11.378 1.5752 1.95654 10.9967 1.95654 22.6187C1.95654 34.2406 11.378 43.6621 22.9999 43.6621C34.622 43.6621 44.0434 34.2406 44.0434 22.6187Z" fill="#141414" stroke="#313131" stroke-width="0.956522"/>
<path d="M26.5873 26.3134C25.7656 27.0521 24.6808 27.4615 23.4905 27.4615C20.8661 27.4615 18.939 25.5343 18.939 22.8883C18.939 20.2423 20.8049 18.3963 23.4905 18.3963C24.6602 18.3963 25.7657 18.7858 26.608 19.5245L27.1807 20.0168L29.7248 17.4737L29.088 16.8992C27.591 15.5475 25.6035 14.7891 23.4895 14.7891C18.773 14.7891 15.3478 18.1926 15.3478 22.8685C15.3478 27.5247 18.8551 31.0499 23.4895 31.0499C25.6431 31.0499 27.6514 30.2914 29.1296 28.918L29.7446 28.3435L27.1609 25.8022L26.5873 26.3134Z" fill="white"/>
<path d="M23.3648 20.2031C24.0883 20.2031 24.7822 20.4906 25.2938 21.0021C25.8055 21.5138 26.0928 22.2076 26.0928 22.9311C26.0928 23.6547 25.8055 24.3486 25.2938 24.8602C24.7822 25.3718 24.0883 25.6592 23.3648 25.6592C22.6413 25.6592 21.9473 25.3718 21.4358 24.8602C20.9242 24.3486 20.6367 23.6547 20.6367 22.9311C20.6367 22.2076 20.9242 21.5138 21.4358 21.0021C21.9473 20.4906 22.6413 20.2031 23.3648 20.2031Z" fill="white"/>
</svg>
