<svg width="71" height="12" viewBox="0 0 71 12" fill="none" xmlns="http://www.w3.org/2000/svg">
<g clip-path="url(#clip0_856_37)">
<g clip-path="url(#clip1_856_37)">
<g clip-path="url(#clip2_856_37)">
<path d="M11.3613 4.37374C11.2904 4.14509 11.0961 3.98269 10.8662 3.96107L7.74283 3.66513L6.50777 0.648626C6.41671 0.427555 6.2093 0.284454 5.97888 0.284454C5.74844 0.284454 5.54104 0.427555 5.44997 0.649142L4.21492 3.66513L1.09107 3.96107C0.861543 3.9832 0.667685 4.14509 0.596433 4.37374C0.525181 4.60239 0.590984 4.85319 0.764614 5.01127L3.1255 7.17184L2.42933 10.3718C2.37839 10.6071 2.46591 10.8503 2.653 10.9915C2.75355 11.0673 2.87121 11.1059 2.98985 11.1059C3.09215 11.1059 3.19361 11.0771 3.28468 11.0202L5.97888 9.33999L8.67208 11.0202C8.86915 11.144 9.11758 11.1327 9.30426 10.9915C9.49143 10.8499 9.5789 10.6067 9.52793 10.3718L8.83175 7.17184L11.1927 5.01171C11.3663 4.85319 11.4325 4.60283 11.3613 4.37374Z" fill="#FFBE0D"/>
</g>
</g>
</g>
<g clip-path="url(#clip3_856_37)">
<g clip-path="url(#clip4_856_37)">
<g clip-path="url(#clip5_856_37)">
<path d="M26.2512 4.37374C26.1803 4.14509 25.986 3.98269 25.7561 3.96107L22.6327 3.66513L21.3977 0.648626C21.3066 0.427555 21.0992 0.284454 20.8688 0.284454C20.6383 0.284454 20.4309 0.427555 20.3399 0.649142L19.1048 3.66513L15.981 3.96107C15.7514 3.9832 15.5576 4.14509 15.4863 4.37374C15.4151 4.60239 15.4809 4.85319 15.6545 5.01127L18.0154 7.17184L17.3192 10.3718C17.2683 10.6071 17.3558 10.8503 17.5429 10.9915C17.6434 11.0673 17.7611 11.1059 17.8797 11.1059C17.982 11.1059 18.0835 11.0771 18.1746 11.0202L20.8688 9.33999L23.562 11.0202C23.759 11.144 24.0075 11.1327 24.1942 10.9915C24.3813 10.8499 24.4688 10.6067 24.4178 10.3718L23.7216 7.17184L26.0826 5.01171C26.2562 4.85319 26.3224 4.60283 26.2512 4.37374Z" fill="#FFBE0D"/>
</g>
</g>
</g>
<g clip-path="url(#clip6_856_37)">
<g clip-path="url(#clip7_856_37)">
<g clip-path="url(#clip8_856_37)">
<path d="M41.1414 4.37374C41.0705 4.14509 40.8762 3.98269 40.6462 3.96107L37.5229 3.66513L36.2878 0.648626C36.1967 0.427555 35.9893 0.284454 35.7589 0.284454C35.5285 0.284454 35.3211 0.427555 35.23 0.649142L33.9949 3.66513L30.8711 3.96107C30.6416 3.9832 30.4477 4.14509 30.3765 4.37374C30.3052 4.60239 30.371 4.85319 30.5446 5.01127L32.9055 7.17184L32.2094 10.3718C32.1584 10.6071 32.2459 10.8503 32.433 10.9915C32.5336 11.0673 32.6512 11.1059 32.7699 11.1059C32.8722 11.1059 32.9736 11.0771 33.0647 11.0202L35.7589 9.33999L38.4521 11.0202C38.6492 11.144 38.8976 11.1327 39.0843 10.9915C39.2715 10.8499 39.3589 10.6067 39.308 10.3718L38.6118 7.17184L40.9727 5.01171C41.1463 4.85319 41.2126 4.60283 41.1414 4.37374Z" fill="#FFBE0D"/>
</g>
</g>
</g>
<g clip-path="url(#clip9_856_37)">
<g clip-path="url(#clip10_856_37)">
<g clip-path="url(#clip11_856_37)">
<path d="M56.0313 4.37374C55.9604 4.14509 55.7661 3.98269 55.5361 3.96107L52.4127 3.66513L51.1777 0.648626C51.0866 0.427555 50.8792 0.284454 50.6488 0.284454C50.4184 0.284454 50.211 0.427555 50.1199 0.649142L48.8848 3.66513L45.761 3.96107C45.5315 3.9832 45.3376 4.14509 45.2664 4.37374C45.1951 4.60239 45.2609 4.85319 45.4345 5.01127L47.7954 7.17184L47.0993 10.3718C47.0483 10.6071 47.1358 10.8503 47.3229 10.9915C47.4235 11.0673 47.5411 11.1059 47.6598 11.1059C47.7621 11.1059 47.8635 11.0771 47.9546 11.0202L50.6488 9.33999L53.342 11.0202C53.5391 11.144 53.7875 11.1327 53.9742 10.9915C54.1614 10.8499 54.2488 10.6067 54.1979 10.3718L53.5017 7.17184L55.8626 5.01171C56.0362 4.85319 56.1025 4.60283 56.0313 4.37374Z" fill="#FFBE0D"/>
</g>
</g>
</g>
<g clip-path="url(#clip12_856_37)">
<g clip-path="url(#clip13_856_37)">
<g clip-path="url(#clip14_856_37)">
<path d="M70.9216 4.37374C70.8507 4.14509 70.6564 3.98269 70.4265 3.96107L67.3031 3.66513L66.0681 0.648626C65.977 0.427555 65.7696 0.284454 65.5392 0.284454C65.3087 0.284454 65.1013 0.427555 65.0103 0.649142L63.7752 3.66513L60.6514 3.96107C60.4218 3.9832 60.228 4.14509 60.1567 4.37374C60.0855 4.60239 60.1513 4.85319 60.3249 5.01127L62.6858 7.17184L61.9896 10.3718C61.9387 10.6071 62.0262 10.8503 62.2133 10.9915C62.3139 11.0673 62.4315 11.1059 62.5501 11.1059C62.6524 11.1059 62.7539 11.0771 62.845 11.0202L65.5392 9.33999L68.2324 11.0202C68.4295 11.144 68.6779 11.1327 68.8646 10.9915C69.0517 10.8499 69.1392 10.6067 69.0882 10.3718L68.392 7.17184L70.753 5.01171C70.9266 4.85319 70.9928 4.60283 70.9216 4.37374Z" fill="#FFBE0D"/>
</g>
</g>
</g>
<defs>
<clipPath id="clip0_856_37">
<rect width="11.39" height="11.39" fill="white"/>
</clipPath>
<clipPath id="clip1_856_37">
<rect width="11.39" height="11.39" fill="white"/>
</clipPath>
<clipPath id="clip2_856_37">
<rect width="11.39" height="11.39" fill="white"/>
</clipPath>
<clipPath id="clip3_856_37">
<rect width="11.39" height="11.39" fill="white" transform="translate(14.8899)"/>
</clipPath>
<clipPath id="clip4_856_37">
<rect width="11.39" height="11.39" fill="white" transform="translate(14.8899)"/>
</clipPath>
<clipPath id="clip5_856_37">
<rect width="11.39" height="11.39" fill="white" transform="translate(14.8899)"/>
</clipPath>
<clipPath id="clip6_856_37">
<rect width="11.39" height="11.39" fill="white" transform="translate(29.78)"/>
</clipPath>
<clipPath id="clip7_856_37">
<rect width="11.39" height="11.39" fill="white" transform="translate(29.78)"/>
</clipPath>
<clipPath id="clip8_856_37">
<rect width="11.39" height="11.39" fill="white" transform="translate(29.78)"/>
</clipPath>
<clipPath id="clip9_856_37">
<rect width="11.39" height="11.39" fill="white" transform="translate(44.6699)"/>
</clipPath>
<clipPath id="clip10_856_37">
<rect width="11.39" height="11.39" fill="white" transform="translate(44.6699)"/>
</clipPath>
<clipPath id="clip11_856_37">
<rect width="11.39" height="11.39" fill="white" transform="translate(44.6699)"/>
</clipPath>
<clipPath id="clip12_856_37">
<rect width="11.39" height="11.39" fill="white" transform="translate(59.5601)"/>
</clipPath>
<clipPath id="clip13_856_37">
<rect width="11.39" height="11.39" fill="white" transform="translate(59.5601)"/>
</clipPath>
<clipPath id="clip14_856_37">
<rect width="11.39" height="11.39" fill="white" transform="translate(59.5601)"/>
</clipPath>
</defs>
</svg>
