<svg width="37" height="84" viewBox="0 0 37 84" fill="none" xmlns="http://www.w3.org/2000/svg">
<g opacity="0.17">
<g filter="url(#filter0_i_843_509)">
<path d="M26.2566 31.1745C26.2566 31.1745 23.2219 26.8224 25.1846 20.7782C27.154 14.7378 31.7404 12.4437 31.7404 12.4437C31.7404 12.4437 35.1725 17.6304 33.2544 23.5183C31.3397 29.4101 26.2566 31.1745 26.2566 31.1745Z" fill="white"/>
<path d="M21.764 34.2654C21.764 34.2654 16.4585 33.7929 13.4202 28.5147C10.3821 23.2403 12.7043 17.341 12.7043 17.341C12.7043 17.341 17.6298 18.4537 20.7503 23.8691C23.8671 29.2807 21.764 34.2654 21.764 34.2654Z" fill="white"/>
<path d="M21.2268 41.2392C23.6826 47.0586 21.0144 51.7002 21.0144 51.7002C21.0144 51.7002 15.8047 50.4578 13.4138 44.7909C11.0265 39.1164 14.0202 33.6058 14.0202 33.6058C14.0202 33.6058 18.771 35.4198 21.2268 41.2392Z" fill="white"/>
<path d="M9.23567 45.9265C9.23567 45.9265 13.8151 48.236 15.7675 54.2801C17.7198 60.3358 14.6748 64.6726 14.6748 64.6726C14.6748 64.6726 9.59876 62.8929 7.69435 56.9973C5.79328 51.1018 9.23567 45.9265 9.23567 45.9265Z" fill="white"/>
<path d="M5.41877 77.7559C5.41877 77.7559 1.01386 74.4214 0.715965 68.1676C0.421404 61.91 5.06252 58.061 5.06252 58.061C5.06252 58.061 8.85072 61.7385 9.15558 68.1562C9.45697 74.5701 5.41877 77.7559 5.41877 77.7559Z" fill="white"/>
<path d="M22.4402 19.5282C22.4402 19.5282 17.7443 17.7828 16.3673 11.5443C14.987 5.30576 17.6552 0.564941 17.6552 0.564941C17.6552 0.564941 23.0944 2.76005 24.4405 8.84612C25.7832 14.9284 22.4402 19.5282 22.4402 19.5282Z" fill="white"/>
<path d="M26.2605 44.4406C26.2605 44.4406 24.5171 39.2844 27.9937 34.1587C31.4771 29.0291 36.4642 28.3394 36.4642 28.3394C36.4642 28.3394 38.3686 34.4216 34.9777 39.4216C31.5867 44.4254 26.2605 44.4406 26.2605 44.4406Z" fill="white"/>
<path d="M22.3691 58.0458C22.3691 58.0458 21.7012 52.5886 26.1128 48.4499C30.5314 44.3074 35.5322 44.8714 35.5322 44.8714C35.5322 44.8714 36.1761 51.2738 31.874 55.3096C27.5651 59.3416 22.3691 58.0458 22.3691 58.0458Z" fill="white"/>
<path d="M16.4437 69.2952C16.4437 69.2952 17.283 63.8686 22.6195 61.4142C27.9594 58.9524 32.5697 61.1741 32.5697 61.1741C32.5697 61.1741 31.4394 67.4927 26.2399 69.8937C21.0404 72.2831 16.4437 69.2952 16.4437 69.2952Z" fill="white"/>
<path d="M13.8547 73.9678C19.4172 72.2376 23.7603 75.0539 23.7603 75.0539C23.7603 75.0539 21.9622 81.1743 16.5436 82.8625C11.1179 84.5508 6.87744 80.9724 6.87744 80.9724C6.87744 80.9724 8.29217 75.6941 13.8547 73.9678Z" fill="white"/>
</g>
</g>
<defs>
<filter id="filter0_i_843_509" x="0.702515" y="-0.41992" width="36.2947" height="83.7351" filterUnits="userSpaceOnUse" color-interpolation-filters="sRGB">
<feFlood flood-opacity="0" result="BackgroundImageFix"/>
<feBlend mode="normal" in="SourceGraphic" in2="BackgroundImageFix" result="shape"/>
<feColorMatrix in="SourceAlpha" type="matrix" values="0 0 0 0 0 0 0 0 0 0 0 0 0 0 0 0 0 0 127 0" result="hardAlpha"/>
<feOffset dy="-0.984861"/>
<feGaussianBlur stdDeviation="0.492432"/>
<feComposite in2="hardAlpha" operator="arithmetic" k2="-1" k3="1"/>
<feColorMatrix type="matrix" values="0 0 0 0 1 0 0 0 0 1 0 0 0 0 1 0 0 0 0.25 0"/>
<feBlend mode="normal" in2="shape" result="effect1_innerShadow_843_509"/>
</filter>
</defs>
</svg>
